<svg width="24" height="24" viewBox="0 0 24 24" fill="none" xmlns="http://www.w3.org/2000/svg">
<g clip-path="url(#clip0_525_357)">
<path d="M21.75 13.1243H3.75V4.68677C3.74913 4.36902 3.81129 4.05425 3.9329 3.76069C4.0545 3.46712 4.23312 3.2006 4.45842 2.97653L4.47717 2.95778C4.83026 2.60521 5.2836 2.37024 5.77524 2.28499C6.26688 2.19973 6.77286 2.26834 7.22405 2.48144C6.79794 3.1899 6.62083 4.02046 6.72086 4.84112C6.82089 5.66178 7.19233 6.42547 7.77614 7.01083L8.28947 7.52416L7.34461 8.46906L8.4052 9.52966L9.35006 8.5848L14.5855 3.34947L15.5303 2.40461L14.4697 1.34397L13.5248 2.28883L13.0115 1.7755C12.3969 1.16263 11.5867 0.784826 10.7222 0.707939C9.85764 0.631052 8.99353 0.859952 8.28042 1.35475C7.52846 0.879867 6.63734 0.674856 5.75346 0.773397C4.86958 0.871937 4.04549 1.26817 3.41658 1.897L3.39783 1.91575C3.03279 2.2788 2.74338 2.71064 2.54635 3.18629C2.34933 3.66193 2.2486 4.17193 2.25 4.68677V13.1243H0.75V14.6243H2.25V16.0633C2.24997 16.1842 2.26947 16.3044 2.30775 16.4191L3.70312 20.605C3.77759 20.8291 3.92078 21.0241 4.11235 21.1621C4.30392 21.3002 4.53413 21.3745 4.77028 21.3743H5.37497L4.82812 23.2493H6.39061L6.9375 21.3743H16.6922L17.2547 23.2493H18.8203L18.2578 21.3743H19.2295C19.4657 21.3745 19.696 21.3003 19.8876 21.1622C20.0792 21.0241 20.2224 20.8291 20.2969 20.605L21.6922 16.4191C21.7304 16.3044 21.75 16.1842 21.75 16.0633V14.6243H23.25V13.1243H21.75ZM8.83687 2.83614C9.25012 2.42379 9.81007 2.19221 10.3939 2.19221C10.9776 2.19221 11.5376 2.42379 11.9508 2.83614L12.4641 3.34947L9.3502 6.46333L8.83687 5.9501C8.42455 5.53684 8.19298 4.9769 8.19298 4.39312C8.19298 3.80934 8.42455 3.2494 8.83687 2.83614ZM20.25 16.0024L18.9594 19.8743H5.04056L3.75 16.0024V14.6243H20.25V16.0024Z" fill="#DEE2E6"/>
</g>
<defs>
<clipPath id="clip0_525_357">
<rect width="24" height="24" fill="white"/>
</clipPath>
</defs>
</svg>
