<svg width="24" height="20" viewBox="0 0 24 20" fill="none" xmlns="http://www.w3.org/2000/svg">
<path d="M2.57122 14.2854C3.51799 14.2854 4.28551 13.1342 4.28551 11.714C4.28551 10.2938 3.51799 9.14258 2.57122 9.14258C1.62445 9.14258 0.856934 10.2938 0.856934 11.714C0.856934 13.1342 1.62445 14.2854 2.57122 14.2854Z" stroke="#DEE2E6" stroke-width="1.71429" stroke-linecap="round" stroke-linejoin="round"/>
<path d="M7.71429 6.57059C8.66106 6.57059 9.42857 5.41932 9.42857 3.99916C9.42857 2.579 8.66106 1.42773 7.71429 1.42773C6.76751 1.42773 6 2.579 6 3.99916C6 5.41932 6.76751 6.57059 7.71429 6.57059Z" stroke="#DEE2E6" stroke-width="1.71429" stroke-linecap="round" stroke-linejoin="round"/>
<path d="M16.2856 6.57059C17.2323 6.57059 17.9999 5.41932 17.9999 3.99916C17.9999 2.579 17.2323 1.42773 16.2856 1.42773C15.3388 1.42773 14.5713 2.579 14.5713 3.99916C14.5713 5.41932 15.3388 6.57059 16.2856 6.57059Z" stroke="#DEE2E6" stroke-width="1.71429" stroke-linecap="round" stroke-linejoin="round"/>
<path d="M21.4282 14.2854C22.3749 14.2854 23.1424 13.1342 23.1424 11.714C23.1424 10.2938 22.3749 9.14258 21.4282 9.14258C20.4814 9.14258 19.7139 10.2938 19.7139 11.714C19.7139 13.1342 20.4814 14.2854 21.4282 14.2854Z" stroke="#DEE2E6" stroke-width="1.71429" stroke-linecap="round" stroke-linejoin="round"/>
<path d="M17.1426 15.1426C17.1426 17.5083 14.3655 18.5711 11.9998 18.5711C9.63408 18.5711 6.85693 17.5083 6.85693 15.1426C6.85693 12.7769 8.57122 9.14258 11.9998 9.14258C15.4284 9.14258 17.1426 12.7769 17.1426 15.1426Z" stroke="#DEE2E6" stroke-width="1.71429" stroke-linecap="round" stroke-linejoin="round"/>
</svg>
