<svg width="24" height="24" viewBox="0 0 24 24" fill="none" xmlns="http://www.w3.org/2000/svg">
<path d="M19.9402 9.3757C19.3862 8.07463 18.5213 6.92944 17.4214 6.04067C16.3215 5.1519 15.0202 4.54671 13.6318 4.27823L14.886 2.27156L13.614 1.47656L11.9591 4.12444C10.2734 4.13226 8.62685 4.63378 7.223 5.56703C5.81915 6.50028 4.71948 7.82437 4.05985 9.3757C3.17628 9.3925 2.33457 9.75529 1.71565 10.3861C1.09673 11.0169 0.75 11.8653 0.75 12.7491C0.75 13.6328 1.09673 14.4812 1.71565 15.112C2.33457 15.7428 3.17628 16.1056 4.05985 16.1224C4.72229 17.6801 5.82828 19.0086 7.24012 19.9424C8.65196 20.8762 10.3073 21.3741 12 21.3741C13.6927 21.3741 15.348 20.8762 16.7599 19.9424C18.1717 19.0086 19.2777 17.6801 19.9402 16.1224C20.8237 16.1056 21.6654 15.7428 22.2844 15.112C22.9033 14.4812 23.25 13.6328 23.25 12.7491C23.25 11.8653 22.9033 11.0169 22.2844 10.3861C21.6654 9.75529 20.8237 9.3925 19.9402 9.3757ZM21.2129 14.062C20.8699 14.4129 20.4023 14.6144 19.9117 14.6227L18.9402 14.6412L18.5599 15.5353C18.0127 16.8223 17.099 17.9199 15.9326 18.6915C14.7662 19.463 13.3985 19.8744 12 19.8744C10.6015 19.8744 9.23389 19.463 8.06747 18.6915C6.90104 17.9199 5.98735 16.8223 5.44017 15.5353L5.05983 14.6412L4.08835 14.6227C3.5975 14.6135 3.12986 14.4121 2.78598 14.0617C2.4421 13.7113 2.24944 13.24 2.24944 12.7491C2.24944 12.2581 2.4421 11.7868 2.78598 11.4364C3.12986 11.086 3.5975 10.8846 4.08835 10.8754L5.05983 10.857L5.44017 9.96286C5.98737 8.67585 6.90107 7.57823 8.06749 6.80669C9.23391 6.03514 10.6015 5.62376 12 5.62376C13.3985 5.62376 14.7661 6.03514 15.9326 6.80669C17.099 7.57823 18.0127 8.67585 18.5599 9.96286L18.9402 10.857L19.9117 10.8754C20.2778 10.8823 20.6338 10.9964 20.9358 11.2034C21.2378 11.4105 21.4725 11.7015 21.611 12.0405C21.7494 12.3795 21.7855 12.7516 21.7147 13.1109C21.644 13.4702 21.4695 13.8008 21.2129 14.062Z" fill="#DEE2E6"/>
<path d="M7.875 10.875H9.75V12.75H7.875V10.875ZM14.25 10.875H16.125V12.75H14.25V10.875ZM12 18C12.4925 18 12.9801 17.903 13.4351 17.7145C13.89 17.5261 14.3034 17.2499 14.6517 16.9017C14.9999 16.5534 15.2761 16.14 15.4645 15.6851C15.653 15.2301 15.75 14.7425 15.75 14.25H8.25C8.25 14.7425 8.347 15.2301 8.53545 15.6851C8.72391 16.14 9.00013 16.5534 9.34835 16.9017C10.0516 17.6049 11.0054 18 12 18Z" fill="#DEE2E6"/>
</svg>
