<svg width="24" height="24" viewBox="0 0 24 24" fill="none" xmlns="http://www.w3.org/2000/svg">
<g clip-path="url(#clip0_525_422)">
<path d="M10.1602 17.1215C10.668 17.3793 11.1289 17.6957 11.543 18.0707C11.957 18.4457 12.3086 18.8676 12.5977 19.3363C12.8867 19.8051 13.1094 20.3051 13.2656 20.8363C13.4219 21.3676 13.5 21.9222 13.5 22.5004H12C12 21.8832 11.8828 21.3011 11.6484 20.7543C11.4141 20.2074 11.0938 19.7308 10.6875 19.3246C10.2812 18.9183 9.80078 18.5941 9.24609 18.3519C8.69141 18.1097 8.10938 17.9926 7.5 18.0004C6.875 18.0004 6.29297 18.1176 5.75391 18.3519C5.21484 18.5863 4.73828 18.9066 4.32422 19.3129C3.91016 19.7191 3.58594 20.1996 3.35156 20.7543C3.11719 21.309 3 21.891 3 22.5004H1.5C1.5 21.9301 1.57812 21.3793 1.73438 20.848C1.89062 20.3168 2.11328 19.8129 2.40234 19.3363C2.69141 18.8597 3.04297 18.4379 3.45703 18.0707C3.87109 17.7035 4.33203 17.3871 4.83984 17.1215C4.26172 16.6996 3.8125 16.1722 3.49219 15.5394C3.17188 14.9066 3.00781 14.2269 3 13.5004C3 12.8832 3.11719 12.3011 3.35156 11.7543C3.58594 11.2074 3.90625 10.7308 4.3125 10.3246C4.71875 9.91833 5.19531 9.59412 5.74219 9.35193C6.28906 9.10974 6.875 8.99255 7.5 9.00037C8.21875 9.00037 8.89453 9.16052 9.52734 9.48083C10.1602 9.80115 10.6914 10.2543 11.1211 10.8402C11.418 10.2543 11.7969 9.73083 12.2578 9.2699C12.7188 8.80896 13.2461 8.43005 13.8398 8.13318C13.2617 7.70349 12.8125 7.17224 12.4922 6.53943C12.1719 5.90662 12.0078 5.22693 12 4.50037C12 3.88318 12.1172 3.30115 12.3516 2.75427C12.5859 2.2074 12.9062 1.73083 13.3125 1.32458C13.7188 0.918335 14.1953 0.594116 14.7422 0.351929C15.2891 0.109741 15.875 -0.00744629 16.5 0.000366211C17.1172 0.000366211 17.6992 0.117554 18.2461 0.351929C18.793 0.586304 19.2695 0.906616 19.6758 1.31287C20.082 1.71912 20.4062 2.19958 20.6484 2.75427C20.8906 3.30896 21.0078 3.89099 21 4.50037C21 5.23474 20.832 5.92615 20.4961 6.57458C20.1602 7.22302 19.6914 7.75818 19.0898 8.18005C19.457 8.37537 19.8086 8.60583 20.1445 8.87146C20.4805 9.13708 20.7852 9.43787 21.0586 9.7738C21.332 10.1097 21.5781 10.4613 21.7969 10.8285C22.0156 11.1957 22.1836 11.5863 22.3008 12.0004H20.7305C20.5586 11.5941 20.3281 11.2113 20.0391 10.8519C19.75 10.4926 19.418 10.1722 19.043 9.89099C18.668 9.60974 18.2656 9.3949 17.8359 9.24646C17.4062 9.09802 16.9609 9.0199 16.5 9.01208C15.875 9.01208 15.293 9.12927 14.7539 9.36365C14.2148 9.59802 13.7383 9.91833 13.3242 10.3246C12.9102 10.7308 12.5859 11.2074 12.3516 11.7543C12.1172 12.3011 12 12.8832 12 13.5004C12 14.2191 11.8398 14.8949 11.5195 15.5277C11.1992 16.1605 10.7461 16.6918 10.1602 17.1215ZM16.5 1.50037C16.0859 1.50037 15.6992 1.57849 15.3398 1.73474C14.9805 1.89099 14.6602 2.10583 14.3789 2.37927C14.0977 2.65271 13.8828 2.96912 13.7344 3.32849C13.5859 3.68787 13.5078 4.07849 13.5 4.50037C13.5 4.91443 13.5781 5.30115 13.7344 5.66052C13.8906 6.0199 14.1055 6.34021 14.3789 6.62146C14.6523 6.90271 14.9688 7.11755 15.3281 7.26599C15.6875 7.41443 16.0781 7.49255 16.5 7.50037C16.9141 7.50037 17.3008 7.42224 17.6602 7.26599C18.0195 7.10974 18.3398 6.8949 18.6211 6.62146C18.9023 6.34802 19.1172 6.03162 19.2656 5.67224C19.4141 5.31287 19.4922 4.92224 19.5 4.50037C19.5 4.0863 19.4219 3.69958 19.2656 3.34021C19.1094 2.98083 18.8945 2.66052 18.6211 2.37927C18.3477 2.09802 18.0312 1.88318 17.6719 1.73474C17.3125 1.5863 16.9219 1.50818 16.5 1.50037ZM4.5 13.5004C4.5 13.9144 4.57812 14.3011 4.73438 14.6605C4.89062 15.0199 5.10547 15.3402 5.37891 15.6215C5.65234 15.9027 5.96875 16.1176 6.32812 16.266C6.6875 16.4144 7.07812 16.4926 7.5 16.5004C7.91406 16.5004 8.30078 16.4222 8.66016 16.266C9.01953 16.1097 9.33984 15.8949 9.62109 15.6215C9.90234 15.348 10.1172 15.0316 10.2656 14.6722C10.4141 14.3129 10.4922 13.9222 10.5 13.5004C10.5 13.0863 10.4219 12.6996 10.2656 12.3402C10.1094 11.9808 9.89453 11.6605 9.62109 11.3793C9.34766 11.098 9.03125 10.8832 8.67188 10.7347C8.3125 10.5863 7.92188 10.5082 7.5 10.5004C7.08594 10.5004 6.69922 10.5785 6.33984 10.7347C5.98047 10.891 5.66016 11.1058 5.37891 11.3793C5.09766 11.6527 4.88281 11.9691 4.73438 12.3285C4.58594 12.6879 4.50781 13.0785 4.5 13.5004ZM24 18.0004V24.0004H16.5V18.0004H17.25V16.5004C17.25 16.0863 17.3281 15.6996 17.4844 15.3402C17.6406 14.9808 17.8555 14.6605 18.1289 14.3793C18.4023 14.098 18.7188 13.8832 19.0781 13.7347C19.4375 13.5863 19.8281 13.5082 20.25 13.5004C20.6641 13.5004 21.0508 13.5785 21.4102 13.7347C21.7695 13.891 22.0898 14.1058 22.3711 14.3793C22.6523 14.6527 22.8672 14.9691 23.0156 15.3285C23.1641 15.6879 23.2422 16.0785 23.25 16.5004V18.0004H24ZM18.75 18.0004H21.75V16.5004C21.75 16.2894 21.7109 16.0941 21.6328 15.9144C21.5547 15.7347 21.4492 15.5785 21.3164 15.4457C21.1836 15.3129 21.0234 15.2035 20.8359 15.1176C20.6484 15.0316 20.4531 14.9926 20.25 15.0004C20.0391 15.0004 19.8438 15.0394 19.6641 15.1176C19.4844 15.1957 19.3281 15.3011 19.1953 15.434C19.0625 15.5668 18.9531 15.7269 18.8672 15.9144C18.7812 16.1019 18.7422 16.2972 18.75 16.5004V18.0004ZM22.5 19.5004H18V22.5004H22.5V19.5004Z" fill="#DEE2E6"/>
</g>
<defs>
<clipPath id="clip0_525_422">
<rect width="24" height="24" fill="white"/>
</clipPath>
</defs>
</svg>
