<svg width="24" height="24" viewBox="0 0 24 24" fill="none" xmlns="http://www.w3.org/2000/svg">
<path d="M21.57 12.6607C21.43 12.2607 21.05 12.0007 20.6 12.0007H13.41C12.95 12.0007 12.58 12.2607 12.43 12.6607L11 16.7707V22.2807C11 22.6607 11.32 23.0007 11.7 23.0007H12.32C12.7 23.0007 13 22.6207 13 22.2407V21.0007H21V22.2407C21 22.6207 21.31 23.0007 21.69 23.0007H22.3C22.68 23.0007 23 22.6607 23 22.2807V16.7707L21.57 12.6607ZM13.41 13.0007H20.6L21.63 16.0007H12.38L13.41 13.0007ZM13 19.0007C12.45 19.0007 12 18.5507 12 18.0007C12 17.4507 12.45 17.0007 13 17.0007C13.55 17.0007 14 17.4507 14 18.0007C14 18.5507 13.55 19.0007 13 19.0007ZM21 19.0007C20.45 19.0007 20 18.5507 20 18.0007C20 17.4507 20.45 17.0007 21 17.0007C21.55 17.0007 22 17.4507 22 18.0007C22 18.5507 21.55 19.0007 21 19.0007ZM6.66 14.5307L7 17.0007L5.95 18.0607L4.19 14.8807L1 13.1107L2.06 12.0307L4.56 12.4007L8.43 8.5307L1 4.6207L2.42 3.2107L11.61 5.3307L15.5 1.4407C16.06 0.855703 17.06 0.855703 17.62 1.4407C18.21 2.0307 18.21 3.0007 17.62 3.5607L13.73 7.4507L14.55 11.0007H13.41C12.54 11.0007 11.79 11.5007 11.5 12.3107L11.47 12.3707L10.56 10.6307L6.66 14.5307Z" fill="#DEE2E6"/>
</svg>
