<svg width="24" height="24" viewBox="0 0 24 24" fill="none" xmlns="http://www.w3.org/2000/svg">
<path d="M16.249 14.2646C15.0821 13.2273 13.575 12.6543 12.0136 12.6543C10.4523 12.6543 8.94521 13.2273 7.77825 14.2646C7.67964 14.35 7.59897 14.454 7.54091 14.5708C7.48286 14.6875 7.44859 14.8147 7.44008 14.9448C7.43158 15.0749 7.44901 15.2054 7.49137 15.3288C7.53373 15.4521 7.60017 15.5658 7.68683 15.6632C7.77349 15.7606 7.87864 15.8399 7.99619 15.8963C8.11373 15.9528 8.24132 15.9853 8.37155 15.9921C8.50177 15.9988 8.63204 15.9796 8.75478 15.9356C8.87751 15.8915 8.99028 15.8235 9.08653 15.7356C9.89306 15.0187 10.9346 14.6228 12.0136 14.6228C13.0927 14.6228 14.1342 15.0187 14.9407 15.7356C15.1359 15.9091 15.392 15.9979 15.6527 15.9826C15.9134 15.9672 16.1573 15.8489 16.3308 15.6538C16.5043 15.4586 16.5932 15.2025 16.5778 14.9418C16.5625 14.6811 16.4442 14.4372 16.249 14.2637V14.2646Z" fill="#DEE2E6"/>
<path d="M12.013 8.61134C9.3701 8.60769 6.82528 9.61221 4.89741 11.4201C4.7998 11.5075 4.72063 11.6136 4.66454 11.732C4.60845 11.8504 4.57658 11.9789 4.57079 12.1098C4.56499 12.2407 4.5854 12.3715 4.6308 12.4944C4.67621 12.6173 4.7457 12.7299 4.83521 12.8257C4.92471 12.9214 5.03243 12.9982 5.15203 13.0518C5.27164 13.1053 5.40074 13.1344 5.53175 13.1374C5.66276 13.1404 5.79304 13.1172 5.91497 13.0692C6.0369 13.0212 6.148 12.9493 6.24178 12.8577C7.80716 11.3942 9.87008 10.5801 12.013 10.5801C14.156 10.5801 16.2189 11.3942 17.7843 12.8577C17.8781 12.9493 17.9892 13.0212 18.1111 13.0692C18.233 13.1172 18.3633 13.1404 18.4943 13.1374C18.6253 13.1344 18.7544 13.1053 18.874 13.0518C18.9936 12.9982 19.1014 12.9214 19.1909 12.8257C19.2804 12.7299 19.3499 12.6173 19.3953 12.4944C19.4407 12.3715 19.4611 12.2407 19.4553 12.1098C19.4495 11.9789 19.4176 11.8504 19.3615 11.732C19.3054 11.6136 19.2263 11.5075 19.1287 11.4201C17.2008 9.61221 14.656 8.60769 12.013 8.61134Z" fill="#DEE2E6"/>
<path d="M21.6562 8.24304C19.0022 5.87509 15.5698 4.56641 12.013 4.56641C8.45629 4.56641 5.02386 5.87509 2.36992 8.24304C2.27018 8.32824 2.18847 8.43252 2.1296 8.54974C2.07073 8.66697 2.03588 8.79478 2.02711 8.92566C2.01833 9.05655 2.0358 9.18787 2.0785 9.3119C2.12119 9.43594 2.18825 9.55019 2.27572 9.64794C2.3632 9.7457 2.46933 9.82498 2.58788 9.88114C2.70643 9.93729 2.83501 9.96919 2.96606 9.97495C3.09711 9.9807 3.228 9.96021 3.35101 9.91467C3.47403 9.86913 3.58671 9.79946 3.68242 9.70976C5.97538 7.66478 8.94043 6.53466 12.0128 6.53466C15.0852 6.53466 18.0503 7.66478 20.3432 9.70976C20.5378 9.88381 20.7936 9.97341 21.0543 9.95886C21.315 9.94432 21.5592 9.8268 21.7333 9.63218C21.9073 9.43756 21.9969 9.18177 21.9824 8.92108C21.9678 8.66039 21.8503 8.41615 21.6557 8.2421L21.6562 8.24304Z" fill="#DEE2E6"/>
<path d="M12.0132 19.9414C12.8416 19.9414 13.5132 19.2698 13.5132 18.4414C13.5132 17.613 12.8416 16.9414 12.0132 16.9414C11.1848 16.9414 10.5132 17.613 10.5132 18.4414C10.5132 19.2698 11.1848 19.9414 12.0132 19.9414Z" fill="#DEE2E6"/>
</svg>
